<?xml version="1.0" standalone="no"?><svg xmlns="http://www.w3.org/2000/svg" viewBox="0 0 1440 320"><path fill="#0800FF" fill-opacity="1" d="M0,288L40,261.3C80,235,160,181,240,160C320,139,400,149,480,170.7C560,192,640,224,720,213.3C800,203,880,149,960,154.7C1040,160,1120,224,1200,229.3C1280,235,1360,181,1400,154.7L1440,128L1440,320L1400,320C1360,320,1280,320,1200,320C1120,320,1040,320,960,320C880,320,800,320,720,320C640,320,560,320,480,320C400,320,320,320,240,320C160,320,80,320,40,320L0,320Z"></path></svg>